<svg viewBox="0 0 96 96" xmlns="http://www.w3.org/2000/svg" xmlns:xlink="http://www.w3.org/1999/xlink" id="Icons_OuterSpaceLandscape_M" overflow="hidden"><g id="Icons"><path d="M87.9 57.4C86.5898 57.415 85.5154 56.3652 85.5 55.055 85.4382 54.4595 85.6303 53.8656 86.029 53.419 86.5065 52.8905 87.1878 52.5922 87.9 52.6 89.2255 52.6 90.3 53.6745 90.3 55 90.3 56.3255 89.2255 57.4 87.9 57.4ZM87.9 54.4C87.7051 54.3952 87.5169 54.4712 87.38 54.61 87.3103 54.6846 87.2782 54.7869 87.293 54.888L87.3 55C87.3 55.3314 87.5686 55.6 87.9 55.6 88.2314 55.6 88.5 55.3314 88.5 55 88.5 54.6686 88.2314 54.4 87.9 54.4Z" fill="#D89C1D"/><path d="M81.4 42.2C80.0919 42.2145 79.0187 41.168 79 39.86 78.9485 39.2759 79.1415 38.6966 79.533 38.26 80.0032 37.7189 80.6831 37.4057 81.4 37.4 82.7255 37.4 83.8 38.4745 83.8 39.8 83.8 41.1255 82.7255 42.2 81.4 42.2ZM81.4 39.2C81.2054 39.2046 81.0217 39.291 80.894 39.438 80.8319 39.5003 80.7961 39.5841 80.794 39.672L80.804 39.8C80.804 40.1314 81.0726 40.4 81.404 40.4 81.7354 40.4 82.004 40.1314 82.004 39.8 82.004 39.4686 81.7354 39.2 81.404 39.2Z" fill="#D89C1D"/><path d="M78.5 52.2C76.7327 52.2 75.3 50.7673 75.3 49 75.3 47.2327 76.7327 45.8 78.5 45.8 80.2673 45.8 81.7 47.2327 81.7 49 81.7 50.7673 80.2673 52.2 78.5 52.2ZM78.5 47.8C77.8373 47.8 77.3 48.3373 77.3 49 77.3 49.6627 77.8373 50.2 78.5 50.2 79.1627 50.2 79.7 49.6627 79.7 49 79.6909 48.3411 79.1589 47.8091 78.5 47.8Z" fill="#D89C1D"/><path d="M74.9 66.8C72.3595 66.8 70.3 64.7405 70.3 62.2 70.3 59.6595 72.3595 57.6 74.9 57.6 77.4405 57.6 79.5 59.6595 79.5 62.2 79.4972 64.7394 77.4394 66.7972 74.9 66.8ZM74.9 59.6C73.4641 59.6 72.3 60.7641 72.3 62.2 72.3 63.6359 73.4641 64.8 74.9 64.8 76.3359 64.8 77.5 63.6359 77.5 62.2 77.5155 60.7796 76.3767 59.6155 74.9563 59.6 74.9375 59.5998 74.9188 59.5998 74.9 59.6Z" fill="#D89C1D"/><path d="M70.4 39.1C68.6327 39.1 67.2 37.6673 67.2 35.9 67.2 34.1327 68.6327 32.7 70.4 32.7 72.1673 32.7 73.6 34.1327 73.6 35.9 73.6 37.6673 72.1673 39.1 70.4 39.1ZM70.4 34.7C69.7373 34.7 69.2 35.2373 69.2 35.9 69.2 36.5627 69.7373 37.1 70.4 37.1 71.0627 37.1 71.6 36.5627 71.6 35.9 71.5909 35.2411 71.0589 34.7091 70.4 34.7Z" fill="#D89C1D"/><path d="M67 53.5C65.6917 53.515 64.6181 52.4683 64.6 51.16 64.5487 50.5757 64.742 49.9963 65.134 49.56 65.6045 49.0198 66.2837 48.7068 67 48.7 68.3255 48.7 69.4 49.7745 69.4 51.1 69.4 52.4255 68.3255 53.5 67 53.5ZM67 50.5C66.8054 50.5046 66.6217 50.591 66.494 50.738 66.4322 50.8013 66.3965 50.8856 66.394 50.974L66.403 51.1C66.403 51.4314 66.6716 51.7 67.003 51.7 67.3344 51.7 67.603 51.4314 67.603 51.1 67.603 50.7686 67.3344 50.5 67.003 50.5Z" fill="#D89C1D"/><path d="M57.6 47.3C55.0606 47.2972 53.0028 45.2394 53 42.7 53.0334 40.1734 55.0734 38.1334 57.6 38.1 60.1405 38.1 62.2 40.1595 62.2 42.7 62.2 45.2405 60.1405 47.3 57.6 47.3ZM57.6 40.1C56.1719 40.1188 55.0188 41.2719 55 42.7 55 44.1359 56.1641 45.3 57.6 45.3 59.0359 45.3 60.2 44.1359 60.2 42.7 60.2 41.2641 59.0359 40.1 57.6 40.1Z" fill="#D89C1D"/><path d="M54 59C52.2327 59 50.8 57.5673 50.8 55.8 50.7806 54.0521 52.1817 52.6194 53.9296 52.6 53.9531 52.5997 53.9765 52.5997 54 52.6 55.7673 52.6 57.2 54.0327 57.2 55.8 57.2 57.5673 55.7673 59 54 59ZM54 54.6C53.3592 54.5781 52.8219 55.0798 52.8 55.7206 52.7991 55.7471 52.7991 55.7736 52.8 55.8 52.8 56.4627 53.3373 57 54 57 54.6627 57 55.2 56.4627 55.2 55.8 55.2 55.1373 54.6627 54.6 54 54.6Z" fill="#D89C1D"/><path d="M50.021 61.74C43.8074 50.9786 47.4941 37.2177 58.2555 31.0041 69.0169 24.7906 82.7778 28.4773 88.9913 39.2386 95.2049 50 91.5182 63.7609 80.7569 69.9745 80.1693 70.3137 79.5668 70.6262 78.951 70.911L82.064 71.534C93.6793 64.5934 97.4689 49.5508 90.5283 37.9355 83.5877 26.3202 68.5451 22.5307 56.9298 29.4713 45.6639 36.2031 41.7035 50.6168 47.948 62.16Z" fill="#D89C1D"/><path d="M94 79.969 90.41 79.072 84.39 75.058 74.39 73.058 59.209 62.938 44.559 65.908 41.267 66.183 27.415 60.173 19.713 65 12.697 65 6.532 69.11 2 70.923 2 73.077 7.371 70.929 13.303 67 20.287 67 27.585 62.427 40.891 68.199 45.346 73.654 52.811 77.847 53.789 76.103 46.654 72.096 43.324 68.018 44.783 67.896 58.791 65.063 73.61 74.942 83.61 76.942 89.59 80.928 94 82.031 94 79.969Z" fill="#D89C1D"/><path d="M30 13C22.785 12.9647 16.9075 18.7849 16.8722 25.9998 16.8368 33.2148 22.657 39.0923 29.872 39.1277 37.087 39.163 42.9645 33.3428 42.9998 26.1278 43 26.1062 43 26.0846 43 26.063 42.9963 18.8746 37.1883 13.0385 30 13ZM40.772 23.82C38.3241 23.2894 35.8303 22.9981 33.326 22.95 31.5227 22.9667 29.7249 23.1518 27.956 23.503 25.7568 23.9286 23.522 24.1426 21.282 24.142 20.5856 24.1417 19.89 24.0943 19.2 24 19.5045 22.3972 20.1606 20.8818 21.121 19.563 23.9458 19.8385 26.7828 19.972 29.621 19.963 32.6906 19.9669 35.758 19.8 38.809 19.463 39.7738 20.7544 40.4439 22.2417 40.772 23.82ZM37.078 17.609C37.0824 17.6123 37.0834 17.6185 37.0801 17.623 37.0784 17.6253 37.0758 17.6267 37.073 17.627 34.747 17.838 32.173 17.956 29.617 17.956 27.2 17.956 24.901 17.87 22.836 17.711 22.83 17.7102 22.8257 17.7047 22.8265 17.6986 22.8269 17.6961 22.8281 17.6937 22.83 17.692 26.9014 14.1344 32.9654 14.0991 37.078 17.609ZM30 37.127C26.8077 37.1226 23.7763 35.7249 21.7 33.3 21.6967 33.2949 21.6981 33.2881 21.7032 33.2848 21.7052 33.2834 21.7076 33.2828 21.71 33.283 23.2051 33.6053 24.7271 33.787 26.256 33.826 28.4781 33.8415 30.6953 33.6166 32.869 33.155 34.401 32.8137 35.9655 32.6394 37.535 32.635 37.956 32.635 38.381 32.652 38.804 32.672 36.7417 35.469 33.4751 37.122 30 37.127ZM39.95 30.749C39.15 30.681 38.339 30.635 37.532 30.635 35.8349 30.6391 34.1432 30.8255 32.486 31.191 30.4378 31.6298 28.3476 31.8427 26.253 31.826 24.3626 31.74 22.485 31.4721 20.646 31.026L20.132 30.921C19.378 29.3878 18.9905 27.7005 19 25.992L19 25.992C19.7552 26.0921 20.5162 26.1432 21.278 26.145 23.6315 26.1445 25.9797 25.9208 28.291 25.477 29.9482 25.1472 31.6324 24.9718 33.322 24.953 35.9032 25.01 38.4719 25.3303 40.988 25.909L40.995 25.918C41.0166 27.5867 40.6593 29.2385 39.95 30.749Z" fill="#D89C1D"/><path d="M36.6 20.536C36.1753 20.5338 35.8292 20.8763 35.827 21.301 35.8248 21.7257 36.1673 22.0718 36.592 22.074 37.0167 22.0762 37.3628 21.7337 37.365 21.309 37.365 21.3073 37.365 21.3057 37.365 21.304 37.3656 20.8808 37.0232 20.5371 36.6 20.536Z" fill="#D89C1D"/><path d="M28.2 17.068C28.6247 17.0702 28.9708 16.7277 28.973 16.303 28.9752 15.8783 28.6327 15.5322 28.208 15.53 27.7833 15.5278 27.4372 15.8703 27.435 16.295 27.435 16.2963 27.435 16.2977 27.435 16.299 27.4339 16.7226 27.7764 17.0669 28.2 17.068Z" fill="#D89C1D"/><path d="M32.191 34.537C31.7663 34.5348 31.4202 34.8773 31.418 35.302 31.4158 35.7267 31.7583 36.0728 32.183 36.075 32.6077 36.0772 32.9538 35.7347 32.956 35.31 32.956 35.3083 32.956 35.3067 32.956 35.305 32.9571 34.8819 32.6151 34.5381 32.192 34.537 32.1917 34.537 32.1913 34.537 32.191 34.537Z" fill="#D89C1D"/><path d="M26.8 27.128C25.9302 27.123 25.221 27.8241 25.216 28.694 25.2111 29.5638 25.9122 30.273 26.782 30.2779 27.6518 30.2829 28.361 29.5818 28.366 28.712 28.366 28.708 28.366 28.704 28.366 28.7 28.3666 27.8339 27.6661 27.1308 26.8 27.128Z" fill="#D89C1D"/><path d="M9.5 8.509C10.0422 9.24067 10.6655 9.90859 11.358 10.5 10.6655 11.0914 10.0422 11.7593 9.5 12.491 8.9578 11.7593 8.33449 11.0914 7.642 10.5 8.3345 9.90859 8.9578 9.24067 9.5 8.509ZM9.5 4C8.70191 6.86486 6.69325 9.23874 4 10.5 6.69325 11.7613 8.70191 14.1351 9.5 17 10.2981 14.1351 12.3068 11.7613 15 10.5 12.3068 9.23874 10.2981 6.86486 9.5 4Z" fill="#D89C1D"/><path d="M8.2 41.929C8.368 42.129 8.545 42.318 8.729 42.5 8.545 42.682 8.368 42.873 8.2 43.071 8.032 42.871 7.855 42.682 7.671 42.5 7.855 42.318 8.032 42.127 8.2 41.929ZM8.2 38C7.64339 39.9788 6.25761 41.6198 4.4 42.5 6.25761 43.3802 7.64339 45.0212 8.2 47 8.75661 45.0212 10.1424 43.3802 12 42.5 10.1424 41.6198 8.75661 39.9788 8.2 38Z" fill="#D89C1D"/><path d="M60.1 13.325C60.5586 13.9316 61.0747 14.4925 61.641 15 61.0747 15.5075 60.5586 16.0684 60.1 16.675 59.6414 16.0684 59.1253 15.5075 58.559 15 59.1253 14.4925 59.6414 13.9316 60.1 13.325ZM60.1 9C59.3136 11.6251 57.4641 13.801 55 15 57.4641 16.199 59.3136 18.3749 60.1 21 60.8864 18.3749 62.7359 16.199 65.2 15 62.7359 13.801 60.8864 11.6251 60.1 9Z" fill="#D89C1D"/><path d="M27.6 50.6C27.72 50.7373 27.8447 50.8707 27.974 51 27.8447 51.128 27.72 51.2613 27.6 51.4 27.48 51.2627 27.3553 51.1293 27.226 51 27.3553 50.872 27.48 50.7387 27.6 50.6ZM27.6 47C27.1182 48.7728 25.872 50.2389 24.2 51 25.872 51.7611 27.1182 53.2272 27.6 55 28.0818 53.2272 29.328 51.7611 31 51 29.328 50.2389 28.0818 48.7728 27.6 47Z" fill="#D89C1D"/></g></svg>