<svg viewBox="0 0 96 96" xmlns="http://www.w3.org/2000/svg" xmlns:xlink="http://www.w3.org/1999/xlink" id="Icons_SolarSystem_M" overflow="hidden"><g id="Icons"><path d="M47 55C53.6274 55 59 49.6274 59 43 59 36.3726 53.6274 31 47 31 40.3726 31 35 36.3726 35 43 35.0072 49.6244 40.3756 54.9928 47 55ZM47 33C52.5228 33 57 37.4772 57 43 57 48.5228 52.5228 53 47 53 41.4772 53 37 48.5228 37 43 37.0061 37.4797 41.4797 33.0061 47 33Z" fill="#D89C1D"/><path d="M23.881 59.875C25.774 63.497 30.067 65.532 35.97 65.605L36.302 65.605C42.6534 65.4062 48.8684 63.712 54.442 60.66 67.142 54.02 74.442 43.466 71.668 36.1 71.0744 36.4072 70.4444 36.6384 69.793 36.788 72.184 43.112 65.128 52.818 53.516 58.888 47.573 62 41.357 63.673 35.995 63.605 30.863 63.542 27.195 61.888 25.653 58.949 23.509 54.849 25.817 49.049 31.039 43.768 31.027 43.511 31 43.259 31 43 31.0054 42.2889 31.0582 41.579 31.158 40.875 24.189 47.165 21.085 54.527 23.881 59.875Z" fill="#D89C1D"/><path d="M68 33C70.2091 33 72 31.2091 72 29 72 26.7909 70.2091 25 68 25 65.7909 25 64 26.7909 64 29 64 31.2091 65.7909 33 68 33ZM68 27C69.1046 27 70 27.8954 70 29 70 30.1046 69.1046 31 68 31 66.8954 31 66 30.1046 66 29 66 27.8954 66.8954 27 68 27Z" fill="#D89C1D"/><path d="M85.249 26.258C82.103 20.563 75.215 17.431 65.843 17.431L65.689 17.431C56.457 17.465 45.871 20.522 35.882 26.041 15.077 37.534 3.37 56.333 9.785 67.946 11.2458 70.525 13.4338 72.6167 16.076 73.96 16.1639 73.2731 16.3414 72.6007 16.604 71.96 14.4849 70.8026 12.73 69.0778 11.536 66.979 5.653 56.331 17.009 38.752 36.849 27.791 46.549 22.433 56.794 19.464 65.697 19.431L65.844 19.431C74.453 19.431 80.72 22.196 83.498 27.225 89.38 37.873 78.025 55.452 58.185 66.413 49.431 71.249 40.237 74.13 31.985 74.672 31.985 74.782 32.002 74.889 32.002 75 32.0012 75.5669 31.9402 76.132 31.82 76.686 40.442 76.173 50.045 73.196 59.154 68.163 79.958 56.67 91.665 37.871 85.249 26.258Z" fill="#D89C1D"/><path d="M24 71C21.7909 71 20 72.7909 20 75 20 77.2091 21.7909 79 24 79 26.2091 79 28 77.2091 28 75 28 72.7909 26.2091 71 24 71ZM24 77C22.8954 77 22 76.1046 22 75 22 73.8954 22.8954 73 24 73 25.1046 73 26 73.8954 26 75 26 76.1046 25.1046 77 24 77Z" fill="#D89C1D"/></g></svg>